#!OML:ASF F:\VICON\USERDATA\INSTALL\rory3\rory3.ASF
:FULLY-SPECIFIED
:DEGREES
375
root 1.32248 16.5958 28.4745 35.1992 7.29972 -2.01027
lowerback -15.8105 -2.21484 3.71917
upperback -13.5679 -3.20277 4.26895
thorax -5.67622 -1.70348 2.12236
lowerneck -7.6131 -0.478083 -1.56924
upperneck 44.9006 -0.164572 -0.693777
head 18.0506 -0.429219 -0.0687375
rclavicle 1.81267e-014 -1.35174e-014
rhumerus -14.8474 -22.5436 -3.92918
rradius 22.0442
rwrist 12.5378
rhand 21.2335 6.44718
rfingers 7.12502
rthumb 45.6824 -16.7784
lclavicle 1.81267e-014 -1.35174e-014
lhumerus 52.5901 11.0304 7.12438
lradius 39.4886
lwrist -9.69085
lhand 18.8294 11.922
lfingers 7.12502
lthumb 43.4431 36.0095
rfemur -56.9087 1.3619 34.7291
rtibia 39.4131
rfoot -44.4328 -34.7607
rtoes 31.8262
lfemur -13.6189 -4.87546 -21.7818
ltibia 29.4806
lfoot -23.9145 43.0164
ltoes 51.2941
376
root 1.32067 16.596 28.4725 35.2217 7.21317 -1.94288
lowerback -15.8348 -2.22393 3.59718
upperback -13.5006 -3.20825 4.2401
thorax -5.58034 -1.69785 2.1536
lowerneck -7.67716 -0.45106 -1.48026
upperneck 44.8748 -0.116604 -0.755708
head 18.0509 -0.402668 -0.106455
rclavicle -1.63749e-014 -1.35174e-014
rhumerus -14.8534 -22.6807 -3.98705
rradius 22.0461
rwrist 12.5811
rhand 21.101 6.31615
rfingers 7.12502
rthumb 45.5593 -16.9597
lclavicle -1.63749e-014 -1.35174e-014
lhumerus 52.5815 11.1888 7.14653
lradius 39.5415
lwrist -9.74785
lhand 18.9618 12.0384
lfingers 7.12502
lthumb 43.5667 36.081
rfemur -56.9202 1.30124 34.6872
rtibia 39.3776
rfoot -44.6078 -34.5662
rtoes 31.9849
lfemur -13.6573 -4.86601 -21.8829
ltibia 29.5114
lfoot -23.5738 43.1876
ltoes 51.1503
377
root 1.31601 16.5967 28.469 35.2295 7.08129 -1.86501
lowerback -15.6543 -2.21121 3.41254
upperback -13.5469 -3.16091 4.20058
thorax -5.71799 -1.66228 2.22964
lowerneck -7.62688 -0.494725 -1.579
upperneck 44.8743 -0.197521 -0.668673
head 18.038 -0.44088 -0.060364
rclavicle 2.56432e-014 3.97569e-015
rhumerus -14.9231 -22.7709 -3.94691
rradius 22.0703
rwrist 12.7245
rhand 21.1115 6.07111
rfingers 7.12502
rthumb 45.5691 -17.2007
lclavicle 2.56432e-014 3.97569e-015
lhumerus 52.626 11.1674 7.24412
lradius 39.5567
lwrist -9.77957
lhand 19.0078 12.2801
lfingers 7.12502
lthumb 43.6097 36.3071
rfemur -56.9237 1.67082 34.3465
rtibia 39.3504
rfoot -44.8035 -34.9125
rtoes 31.744
lfemur -13.6825 -4.88176 -22.0128
ltibia 29.512
lfoot -22.49 43.722
ltoes 50.8614
378
root 1.31746 16.5974 28.4697 35.2333 7.15303 -1.9889
lowerback -15.5153 -2.15536 3.62372
upperback -13.6524 -3.09495 4.18863
thorax -5.92636 -1.64674 2.1191
lowerneck -7.37088 -0.5075 -1.64042
upperneck 44.77 -0.248377 -0.571571
head 17.9049 -0.458164 -0.00988156
rclavicle 6.0443e-014 5.56597e-015
rhumerus -15.0942 -22.5561 -3.88013
rradius 22.1481
rwrist 12.6031
rhand 21.137 5.83902
rfingers 7.12502
rthumb 45.5928 -17.4232
lclavicle 6.0443e-014 5.56597e-015
lhumerus 52.6242 10.9538 7.09385
lradius 39.5584
lwrist -9.48858
lhand 19.1082 12.2479
lfingers 7.12502
lthumb 43.7034 36.2405
rfemur -56.8943 1.50704 34.6128
rtibia 39.3269
rfoot -44.6907 -34.5992
rtoes 31.9079
lfemur -13.6775 -4.9466 -21.855
ltibia 29.4983
lfoot -22.4284 43.7624
ltoes 50.8692
379
root 1.32107 16.5962 28.4719 35.2207 7.17627 -2.01257
lowerback -15.482 -2.12289 3.7103
upperback -13.664 -3.05855 4.15679
thorax -5.96488 -1.63672 2.04309
lowerneck -7.33728 -0.515566 -1.54795
upperneck 44.7836 -0.248155 -0.655955
head 17.9037 -0.453011 -0.066254
rclavicle 3.42282e-014 -2.62396e-014
rhumerus -15.1774 -22.8592 -3.75354
rradius 22.0811
rwrist 12.8867
rhand 21.2931 5.94324
rfingers 7.12502
rthumb 45.7377 -17.2597
lclavicle 3.42282e-014 -2.62396e-014
lhumerus 52.613 10.9179 7.02306
lradius 39.563
lwrist -9.31289
lhand 19.3023 12.0144
lfingers 7.12502
lthumb 43.8846 35.9402
rfemur -56.8625 1.21865 34.8192
rtibia 39.3225
rfoot -44.6322 -34.2192
rtoes 32.1175
lfemur -13.5954 -5.01274 -21.8294
ltibia 29.4681
lfoot -23.118 43.3908
ltoes 51.0797
380
root 1.32123 16.597 28.4748 35.2434 7.23513 -2.10363
lowerback -15.6444 -2.1124 3.82695
upperback -13.5343 -3.07302 4.15766
thorax -5.7398 -1.65147 1.96345
lowerneck -7.64157 -0.508093 -1.45145
upperneck 44.885 -0.251629 -0.663275
head 18.0477 -0.440096 -0.0900354
rclavicle 5.07895e-014 -2.22639e-014
rhumerus -15.0716 -23.8623 -3.75683
rradius 21.825
rwrist 13.6189
rhand 21.3754 6.09637
rfingers 7.12502
rthumb 45.8141 -17.0752
lclavicle 5.07895e-014 -2.22639e-014
lhumerus 52.609 11.0491 6.84839
lradius 39.573
lwrist -9.0495
lhand 19.023 12.1242
lfingers 7.12502
lthumb 43.6239 36.1459
rfemur -56.8748 1.22283 34.936
rtibia 39.3247
rfoot -44.8444 -34.1161
rtoes 32.1872
lfemur -13.5959 -4.98999 -21.7069
ltibia 29.4208
lfoot -22.6581 43.555
ltoes 50.9339
381
root 1.32014 16.5972 28.4749 35.2689 7.1423 -2.03128
lowerback -15.8237 -2.10052 3.67831
upperback -13.3731 -3.0613 4.13202
thorax -5.45462 -1.63312 2.00272
lowerneck -7.84632 -0.50807 -1.4941
upperneck 44.9263 -0.27256 -0.573177
head 18.1292 -0.443854 -0.0439897
rclavicle 6.07536e-015 -1.66979e-014
rhumerus -15.0069 -24.4266 -3.76047
rradius 21.7308
rwrist 13.9428
rhand 21.3748 6.08987
rfingers 7.12502
rthumb 45.8136 -17.0819
lclavicle 6.07536e-015 -1.66979e-014
lhumerus 52.7748 11.2868 7.07086
lradius 39.5001
lwrist -9.07706
lhand 18.7861 12.1074
lfingers 7.12502
lthumb 43.4026 36.2096
rfemur -56.9368 1.40867 34.7301
rtibia 39.3706
rfoot -44.6578 -34.5587
rtoes 31.314
lfemur -13.5814 -4.93927 -21.8213
ltibia 29.3401
lfoot -21.5463 44.0008
ltoes 50.5877
382
root 1.31928 16.5956 28.4706 35.2967 6.97559 -1.86236
lowerback -15.9897 -2.10589 3.43679
upperback -13.1951 -3.06308 4.05969
thorax -5.15494 -1.61752 2.04267
lowerneck -7.99091 -0.503039 -1.56436
upperneck 44.8258 -0.313002 -0.407994
head 18.1055 -0.45023 0.0404127
rclavicle -5.44173e-014 -2.38542e-015
rhumerus -14.9779 -24.801 -3.85183
rradius 21.7617
rwrist 14.139
rhand 21.3938 6.15861
rfingers 7.12502
rthumb 45.8312 -17.0059
lclavicle -5.44173e-014 -2.38542e-015
lhumerus 52.9346 11.5876 7.29971
lradius 39.4162
lwrist -9.17171
lhand 18.0659 12.3079
lfingers 7.12502
lthumb 42.7292 36.6488
rfemur -57.0149 1.43084 34.4954
rtibia 39.4088
rfoot -44.4271 -34.6938
rtoes 31.0643
lfemur -13.5621 -5.01485 -22.0727
ltibia 29.3004
lfoot -21.1871 44.0405
ltoes 50.4253
383
root 1.31879 16.593 28.4677 35.2661 6.91782 -1.81586
lowerback -15.5685 -2.15938 3.33879
upperback -13.4919 -3.08604 4.09899
thorax -5.70233 -1.62358 2.17095
lowerneck -7.58125 -0.451095 -1.57619
upperneck 44.9378 -0.222711 -0.450368
head 18.0651 -0.422099 0.0380087
rclavicle -1.18153e-014 7.95139e-015
rhumerus -14.8841 -23.842 -3.9289
rradius 21.8787
rwrist 13.8
rhand 21.4342 6.13522
rfingers 7.12502
rthumb 45.8687 -17.0138
lclavicle -1.18153e-014 7.95139e-015
lhumerus 52.792 11.1796 7.37248
lradius 39.3611
lwrist -9.23834
lhand 17.1599 12.7905
lfingers 7.12502
lthumb 41.8807 37.4204
rfemur -57.0113 1.69239 34.2488
rtibia 39.4534
rfoot -44.7428 -34.7277
rtoes 31.3617
lfemur -13.4785 -4.96007 -22.1443
ltibia 29.2356
lfoot -20.8697 44.0026
ltoes 50.352
384
root 1.31648 16.591 28.4668 35.2803 6.98682 -1.92319
lowerback -15.572 -2.16734 3.43262
upperback -13.5021 -3.10483 4.14547
thorax -5.71552 -1.6382 2.16692
lowerneck -7.519 -0.419043 -1.53049
upperneck 44.897 -0.179515 -0.466029
head 18.0221 -0.398725 0.0296582
rclavicle -1.76546e-014 9.54166e-015
rhumerus -14.7369 -23.4333 -4.08555
rradius 21.9146
rwrist 13.3977
rhand 21.4567 5.68183
rfingers 7.12502
rthumb 45.8896 -17.4585
lclavicle -1.76546e-014 9.54166e-015
lhumerus 52.8507 11.3091 7.66477
lradius 39.3071
lwrist -9.58407
lhand 17.0701 12.6983
lfingers 7.12502
lthumb 41.7965 37.3562
rfemur -57.0495 2.10929 34.119
rtibia 39.4948
rfoot -45.1834 -34.9256
rtoes 31.9082
lfemur -13.4587 -4.93716 -21.9885
ltibia 29.1691
lfoot -22.0695 43.5555
ltoes 50.7451
385
root 1.31359 16.5861 28.4655 35.2842 6.94181 -1.94396
lowerback -15.6006 -2.12941 3.3891
upperback -13.4612 -3.05361 4.12982
thorax -5.65294 -1.60898 2.17606
lowerneck -7.5481 -0.453852 -1.62424
upperneck 44.8736 -0.267312 -0.326839
head 18.0164 -0.431551 0.098339
rclavicle 5.87657e-015 -1.27222e-014
rhumerus -14.741 -23.7445 -4.04489
rradius 21.8517
rwrist 13.6491
rhand 21.4825 5.65682
rfingers 7.12502
rthumb 45.9136 -17.4736
lclavicle 5.87657e-015 -1.27222e-014
lhumerus 53.005 11.4208 7.9136
lradius 39.281
lwrist -9.89829
lhand 17.3941 12.4007
lfingers 7.12502
lthumb 42.1002 36.957
rfemur -57.0883 2.42814 33.9429
rtibia 39.544
rfoot -45.4194 -35.0211
rtoes 32.5829
lfemur -13.362 -4.94995 -21.9727
ltibia 29.1132
lfoot -26.5025 41.3935
ltoes 52.0139
386
root 1.31278 16.5824 28.4619 35.2685 6.81971 -1.8379
lowerback -15.486 -2.13771 3.23376
upperback -13.5042 -3.04199 4.09158
thorax -5.75407 -1.59363 2.2301
lowerneck -7.51192 -0.477304 -1.71703
upperneck 44.8831 -0.313408 -0.253507
head 18.0138 -0.456985 0.142305
rclavicle -3.97569e-015 8.74653e-015
rhumerus -14.7785 -23.0489 -4.14935
rradius 22.0617
rwrist 13.0711
rhand 21.4291 5.4276
rfingers 7.12502
rthumb 45.864 -17.7234
lclavicle -3.97569e-015 8.74653e-015
lhumerus 52.9209 11.3179 7.78901
lradius 39.3248
lwrist -9.85066
lhand 17.8341 12.1746
lfingers 7.12502
lthumb 42.5123 36.5907
rfemur -57.106 2.48828 33.7609
rtibia 39.5912
rfoot -45.518 -34.9748
rtoes 32.7557
lfemur -13.249 -4.9013 -22.1234
ltibia 29.0745
lfoot -28.2855 40.1854
ltoes 52.4897
387
root 1.31402 16.5816 28.4552 35.2728 6.65981 -1.62219
lowerback -15.4124 -2.16956 2.96136
upperback -13.4963 -3.05578 4.02645
thorax -5.76972 -1.58307 2.31329
lowerneck -7.53382 -0.488872 -1.72987
upperneck 44.9315 -0.344397 -0.218249
head 18.0504 -0.467819 0.155902
rclavicle 3.23149e-014 -8.74653e-015
rhumerus -14.7745 -22.5682 -4.26792
rradius 22.215
rwrist 12.495
rhand 21.3793 5.3137
rfingers 7.12502
rthumb 45.8178 -17.8563
lclavicle 3.23149e-014 -8.74653e-015
lhumerus 52.8495 11.3486 7.71904
lradius 39.3616
lwrist -9.89265
lhand 18.5283 11.7995
lfingers 7.12502
lthumb 43.1617 35.988
rfemur -57.1772 2.50758 33.4597
rtibia 39.6572
rfoot -45.6592 -34.9836
rtoes 32.8102
lfemur -13.1844 -4.96809 -22.4218
ltibia 29.0096
lfoot -26.9047 40.8624
ltoes 52.2128
388
root 1.3125 16.5804 28.4516 35.2687 6.66896 -1.61603
lowerback -15.7321 -2.14114 2.93544
upperback -13.1665 -3.04683 3.98509
thorax -5.23021 -1.57655 2.25308
lowerneck -7.93495 -0.526142 -1.66275
upperneck 44.7837 -0.40468 -0.224861
head 18.0655 -0.480419 0.130014
rclavicle 1.97045e-014 -2.8625e-014
rhumerus -14.8108 -22.7574 -4.32747
rradius 22.2489
rwrist 12.1447
rhand 21.2851 5.39408
rfingers 7.12502
rthumb 45.7303 -17.8119
lclavicle 1.97045e-014 -2.8625e-014
lhumerus 53.1367 11.9317 8.00258
lradius 39.3149
lwrist -10.1596
lhand 19.0964 11.4718
lfingers 7.12502
lthumb 43.6924 35.4684
rfemur -57.2216 2.61889 33.3887
rtibia 39.7153
rfoot -45.7493 -35.2119
rtoes 32.4897
lfemur -13.1566 -4.99335 -22.4147
ltibia 28.958
lfoot -26.1105 41.1798
ltoes 51.9303
